HIERARCHY
ROOT Hips
{
	OFFSET 0.00000 0.00000 0.00000
	CHANNELS 6 Xposition Yposition Zposition Zrotation Yrotation Xrotation 
	JOINT LHipJoint
	{
		OFFSET 0 0 0
		CHANNELS 3 Zrotation Yrotation Xrotation
		JOINT LeftUpLeg
		{
			OFFSET 1.64577 -1.42384 0.94276
			CHANNELS 3 Zrotation Yrotation Xrotation
			JOINT LeftLeg
			{
				OFFSET 2.11538 -5.81197 0.00000
				CHANNELS 3 Zrotation Yrotation Xrotation
				JOINT LeftFoot
				{
					OFFSET 2.36541 -6.49893 0.00000
					CHANNELS 3 Zrotation Yrotation Xrotation
					JOINT LeftToeBase
					{
						OFFSET 0.17759 -0.48793 1.73865
						CHANNELS 3 Zrotation Yrotation Xrotation
						End Site
						{
							OFFSET 0.00000 -0.00000 0.91205
						}
					}
				}
			}
		}
	}
	JOINT RHipJoint
	{
		OFFSET 0 0 0
		CHANNELS 3 Zrotation Yrotation Xrotation
		JOINT RightUpLeg
		{
			OFFSET -1.43750 -1.42384 0.94276
			CHANNELS 3 Zrotation Yrotation Xrotation
			JOINT RightLeg
			{
				OFFSET -2.10480 -5.78291 0.00000
				CHANNELS 3 Zrotation Yrotation Xrotation
				JOINT RightFoot
				{
					OFFSET -2.34880 -6.45329 0.00000
					CHANNELS 3 Zrotation Yrotation Xrotation
					JOINT RightToeBase
					{
						OFFSET -0.22842 -0.62757 1.80469
						CHANNELS 3 Zrotation Yrotation Xrotation
						End Site
						{
							OFFSET -0.00000 -0.00000 0.95886
						}
					}
				}
			}
		}
	}
	JOINT LowerBack
	{
		OFFSET 0 0 0
		CHANNELS 3 Zrotation Yrotation Xrotation
		JOINT Spine
		{
			OFFSET 0.06217 1.93758 -0.49272
			CHANNELS 3 Zrotation Yrotation Xrotation
			JOINT Spine1
			{
				OFFSET -0.03114 2.03621 -0.05830
				CHANNELS 3 Zrotation Yrotation Xrotation
				JOINT Neck
				{
					OFFSET 0 0 0
					CHANNELS 3 Zrotation Yrotation Xrotation
					JOINT Neck1
					{
						OFFSET 0.04421 1.41010 0.26562
						CHANNELS 3 Zrotation Yrotation Xrotation
						JOINT Head
						{
							OFFSET -0.13407 1.43847 0.06181
							CHANNELS 3 Zrotation Yrotation Xrotation
							End Site
							{
								OFFSET -0.04980 1.45844 -0.00689
							}
						}
					}
				}
				JOINT LeftShoulder
				{
					OFFSET 0 0 0
					CHANNELS 3 Zrotation Yrotation Xrotation
					JOINT LeftArm
					{
						OFFSET 2.18382 1.47753 -0.35694
						CHANNELS 3 Zrotation Yrotation Xrotation
						JOINT LeftForeArm
						{
							OFFSET 5.05460 -0.00000 0.00000
							CHANNELS 3 Zrotation Yrotation Xrotation
							JOINT LeftHand
							{
								OFFSET 3.39013 -0.00000 0.00000
								CHANNELS 3 Zrotation Yrotation Xrotation
								JOINT LeftFingerBase
								{
									OFFSET 0 0 0
									CHANNELS 3 Zrotation Yrotation Xrotation
									JOINT LeftHandIndex1
									{
										OFFSET 0.57242 -0.00000 -0.00000
										CHANNELS 3 Zrotation Yrotation Xrotation
										End Site
										{
											OFFSET 0.46150 -0.00000 -0.00000
										}
									}
								}
								JOINT LThumb
								{
									OFFSET 0 0 0
									CHANNELS 3 Zrotation Yrotation Xrotation
									End Site
									{
										OFFSET 0.46855 -0.00000 0.46855
									}
								}
							}
						}
					}
				}
				JOINT RightShoulder
				{
					OFFSET 0 0 0
					CHANNELS 3 Zrotation Yrotation Xrotation
					JOINT RightArm
					{
						OFFSET -2.06033 1.72839 -0.47437
						CHANNELS 3 Zrotation Yrotation Xrotation
						JOINT RightForeArm
						{
							OFFSET -5.07010 -0.00000 0.00000
							CHANNELS 3 Zrotation Yrotation Xrotation
							JOINT RightHand
							{
								OFFSET -3.14957 -0.00000 -0.00000
								CHANNELS 3 Zrotation Yrotation Xrotation
								JOINT RightFingerBase
								{
									OFFSET 0 0 0
									CHANNELS 3 Zrotation Yrotation Xrotation
									JOINT RightHandIndex1
									{
										OFFSET -0.71819 -0.00000 -0.00000
										CHANNELS 3 Zrotation Yrotation Xrotation
										End Site
										{
											OFFSET -0.57902 -0.00000 -0.00000
										}
									}
								}
								JOINT RThumb
								{
									OFFSET 0 0 0
									CHANNELS 3 Zrotation Yrotation Xrotation
									End Site
									{
										OFFSET -0.58786 -0.00000 0.58786
									}
								}
							}
						}
					}
				}
			}
		}
	}
}
MOTION
Frames: 8
Frame Time: 0.111111
0.00 0.00 0.00 0 0 0 0 0 0 -21 0 0 0 0 0 0 0 0 0 0 0 0 0 0 21 0 0 0 0 0 0 0 0 0 0 0 0 0 0 0 0 0 0 0 0 0 0 -16 0 0 21 0 0 11 0 0 0 -8 0 0 0 0 0 0 0 0 0 0 0 0 0 0 0 0 0 0 0 0 8 0 0 0 0 0 0 0 0 0 0 0 0 0 0 0 0 0
0.00 0.00 0.00 -179.3100 4.5183 179.8240 0.0000 0.0000 0.0000 -13.6875 -10.6321 -14.6208 4.1689 12.3818 37.0963 1.1746 7.6417 -24.5619 1.4623 -7.6425 -21.6333 0.0000 0.0000 0.0000 17.8773 6.1025 -15.7174 -4.2044 -12.4275 37.2616 -1.0890 -14.0162 -29.2229 -3.3312 11.2128 -33.0010 -1.1232 0.9096 16.8439 -1.3663 1.6236 4.6639 -1.1581 1.0956 -4.4387 7.9387 5.7783 -8.1324 -6.4712 7.3016 -3.0289 -3.2125 3.6343 1.0245 0.0000 0.0000 0.0000 -58.3455 -13.8818 21.2177 43.4129 -49.9668 -21.0164 -0.0000 0.0000 -0.7382 23.9571 12.8423 5.6403 -7.1250 0.0000 -0.0000 -3.0773 43.9654 0.0787 0.0000 0.0000 0.0000 65.2201 7.1627 15.3324 -57.6599 55.6534 -32.4013 0.0000 -0.0000 -12.5357 -20.7000 0.4223 -0.1596 7.1250 -0.0000 -0.0000 4.6002 -29.5138 1.7421
0.00 0.00 0.00 -179.6390 4.4237 180.9350 0.0000 0.0000 0.0000 -12.3711 -10.2412 -23.7321 6.6862 15.0618 47.6773 1.5581 5.2309 -25.9641 1.8760 -8.6028 -24.5605 0.0000 0.0000 0.0000 16.4762 6.7654 -25.3146 -7.0981 -15.4140 49.2444 -1.5549 -12.2570 -30.7666 -3.2884 11.1478 -32.7801 -2.3263 0.8864 20.7705 -1.7408 1.4979 5.1743 -0.9673 1.1474 -5.9744 7.7765 5.5815 -7.3693 -6.5971 7.2595 -6.7143 -3.3112 3.7220 -0.3139 -0.0000 0.0000 0.0000 -44.6802 -20.2062 5.8202 68.3948 -58.1606 -41.4049 -0.0000 -0.0000 3.7696 31.0977 11.7541 7.0051 -7.1250 0.0000 -0.0000 3.5940 43.6087 -0.1236 -0.0000 0.0000 0.0000 54.6188 13.8453 2.9402 -81.0144 59.6927 -52.2263 0.0000 -0.0000 -13.0241 -32.2769 2.0793 -1.3128 7.1250 -0.0000 -0.0000 -4.3771 -27.5132 -1.8651
0.00 0.00 0.00 -179.5980 4.7115 181.6880 0.0000 0.0000 0.0000 -11.1860 -10.0731 -29.6911 8.8123 16.6854 55.4389 1.8908 4.1026 -27.7088 2.1601 -9.1919 -26.3974 0.0000 0.0000 0.0000 15.6574 8.1724 -31.0207 -9.3264 -17.0133 57.2123 -1.8707 -11.6641 -32.2568 -3.2870 11.1457 -32.7729 -2.5216 0.8906 22.6920 -1.9344 1.5343 5.5033 -1.1363 1.2282 -6.6088 7.9547 5.4902 -6.3852 -7.0810 7.2603 -8.6715 -3.5965 3.7842 -1.0959 -0.0000 0.0000 0.0000 -37.6035 -23.5246 -8.2136 92.9870 -59.9663 -62.5865 -0.0000 -0.0000 6.2163 37.4926 6.9022 5.2672 -7.1250 0.0000 -0.0000 9.2459 38.5000 -1.4953 -0.0000 0.0000 0.0000 48.4656 18.3215 -8.5317 -100.0343 59.6161 -68.6787 0.0000 -0.0000 -12.7845 -40.0026 5.4572 -4.5629 7.1250 -0.0000 -0.0000 -9.7612 -22.8964 -5.2688
0.00 0.00 0.00 -179.4850 4.9068 182.1350 0.0000 0.0000 0.0000 -10.3330 -9.9239 -34.0227 10.6789 17.7743 61.7344 2.0964 4.3265 -29.1679 2.7384 -10.2590 -29.8197 0.0000 0.0000 0.0000 15.0323 9.2999 -35.0233 -11.2336 -18.0475 63.5380 -2.1150 -11.5501 -33.6015 -3.4007 11.3170 -33.3566 -2.3549 0.7445 24.0914 -2.0330 1.4195 5.6661 -1.3540 1.2082 -7.1416 8.4927 5.5780 -5.5390 -7.9012 7.3774 -9.4423 -4.0373 3.8589 -1.4358 -0.0000 0.0000 0.0000 -34.2388 -25.3858 -19.9545 116.9750 -57.0636 -83.1307 -0.0000 -0.0000 6.9299 46.8866 1.9069 2.0356 -7.1250 0.0000 -0.0000 16.2978 32.4542 -5.1901 -0.0000 0.0000 0.0000 44.2232 21.5472 -17.3266 -116.9581 57.0675 -83.1165 0.0000 -0.0000 -12.8030 -47.6435 8.8952 -9.6256 7.1250 -0.0000 -0.0000 -14.3759 -17.1432 -9.8155
0.00 0.00 0.00 -179.4990 5.0816 182.5610 0.0000 0.0000 0.0000 -9.9112 -9.8732 -37.6016 12.3011 18.5150 66.9400 2.0865 6.4797 -30.2208 3.8729 -11.9893 -35.6941 0.0000 0.0000 0.0000 14.3501 10.3987 -38.1799 -12.9119 -18.7501 68.8517 -2.3199 -11.9196 -35.0016 -3.3228 11.2002 -32.9579 -2.2773 0.5147 25.1982 -1.9844 1.1580 5.7321 -1.3032 1.1033 -7.6325 9.3874 5.9825 -5.2925 -9.0048 7.8050 -9.0663 -4.5825 4.0469 -1.2325 0.0000 0.0000 0.0000 -33.3613 -24.8898 -28.3403 137.5198 -49.4726 -99.6952 -0.0000 -0.0000 8.2761 54.9019 -1.2265 -1.7445 -7.1250 0.0000 -0.0000 21.4353 27.5645 -9.7283 0.0000 0.0000 0.0000 40.2673 22.7335 -22.5512 -132.8949 51.7591 -96.1190 0.0000 -0.0000 -13.8234 -51.7148 11.8405 -14.5716 7.1250 -0.0000 -0.0000 -16.2417 -11.8273 -13.1194
0.00 0.00 0.00 -178.3630 5.4496 183.5730 0.0000 0.0000 0.0000 -9.9015 -10.5372 -33.0855 10.1142 17.4736 59.8695 2.3182 3.6508 -30.2461 1.6717 -8.1459 -23.1582 0.0000 0.0000 0.0000 16.2468 9.8451 -33.5591 -10.1447 -17.4904 59.9710 -1.9968 -12.3230 -33.4837 -3.0438 10.7656 -31.4934 -0.7254 0.3798 24.0059 -1.1250 1.3601 5.6906 -1.2702 1.1342 -7.0730 10.3772 6.2974 -5.6240 -10.2407 8.0375 -7.9290 -4.6241 4.1223 -0.5854 0.0000 -0.0000 0.0000 -29.9057 -4.1089 -6.7424 137.5518 -49.4553 -99.7195 -0.0000 -0.0000 10.8616 36.1676 -19.4413 -13.6751 -7.1250 0.0000 -0.0000 4.9751 6.4385 -4.4029 0.0000 -0.0000 0.0000 32.3196 -0.5404 0.8246 -136.9766 49.7626 -99.2814 0.0000 -0.0000 -5.6475 -35.0588 27.6067 -18.0137 7.1250 -0.0000 -0.0000 -2.7562 2.5590 -2.8798
0.00 0.00 0.00 -178.9630 6.8279 184.6060 0.0000 0.0000 0.0000 -11.0857 -9.5904 -28.4168 7.6226 15.8345 51.1916 1.8140 5.5802 -27.9530 1.6680 -8.1373 -23.1318 0.0000 0.0000 0.0000 16.4544 9.6620 -29.7662 -7.9221 -16.0616 52.2815 -1.6532 -11.7397 -30.9806 -2.9816 10.6652 -31.1590 -0.6795 0.8768 21.7789 -1.1217 1.8480 5.2255 -1.3609 1.2913 -6.4274 10.4694 6.7091 -5.3318 -10.9407 8.5697 -7.5644 -4.8267 4.3859 -0.4267 -0.0000 0.0000 0.0000 -61.3776 -11.0843 2.9967 148.5664 -42.0909 -107.6405 -0.0000 0.0000 -17.0707 48.9784 -6.5079 -7.4229 -7.1250 0.0000 -0.0000 15.8209 20.2772 -9.7304 -0.0000 0.0000 0.0000 57.1344 12.4662 7.2564 -150.4702 40.4870 -108.8969 0.0000 -0.0000 -18.5630 -42.0281 19.5000 -16.7444 7.1250 -0.0000 -0.0000 -8.5743 -4.7336 -7.9286
